<?xml version="1.0" encoding="utf-8"?>
<!-- Designed by Vexels.com - 2019 All Rights Reserved - https://vexels.com/terms-and-conditions/  -->
<svg version="1.1" id="Capa_1" xmlns="http://www.w3.org/2000/svg" xmlns:xlink="http://www.w3.org/1999/xlink" x="0px" y="0px"
	 viewBox="0 0 1200 1200" enable-background="new 0 0 1200 1200" xml:space="preserve">
<g>
	<g>
		<path fill="#DDB9A8" d="M1114.069,632.647c-0.107,0.039-0.212,0.076-0.32,0.115c-0.693-2.592-1.3-5.257-1.826-7.978
			c-0.281-1.285-0.535-2.573-0.729-3.862L983.91,649.168c0,0-0.038,0.012-0.081,0.025c0.001,0.001,0.003,0.003,0.005,0.004h0.015
			c-3.625,1.853-6.83,9.747-1.71,30.485c4.949,20.044,16.194,36.586,20.805,39.355l141.928-90.546l-26.228,16.709
			C1117.142,641.327,1115.487,637.07,1114.069,632.647z"/>
	</g>
	<g>
		<path fill="#EAD1C1" d="M982.912,521.715c-4.852,19.493-2.088,29.249,1.05,32.249c0.102,0.098,0.205,0.211,0.307,0.294h0.002
			c-0.001,0.001-0.001,0.001-0.001,0.001l0,0c-0.103-0.084,127.35,26.991,127.35,26.991c0.817-4.314,3.013-12.538,3.013-12.538
			c1.288-4.34,2.784-8.516,4.249-12.281l-114.852-74.071l-0.289,0.044C998.883,485.228,987.884,501.736,982.912,521.715z"/>
	</g>
	<g>
		<path fill="#E5C3B5" d="M984.27,554.259c-4.086,1.861-11.52,25.708-11.54,46.436c-0.019,20.127,7.185,45.83,11.099,48.498
			c0.043-0.013,0.081-0.025,0.081-0.025l127.284-28.246c-0.001-0.01-0.004-0.02-0.005-0.029l0.047-0.011
			c-1.026-6.431-1.579-13.164-1.572-20.112c0.001-1.622,0.049-3.224,0.132-4.811c0.003-0.051,0.004-0.103,0.007-0.154
			c0.084-1.545,0.207-3.071,0.359-4.582c0.009-0.09,0.016-0.181,0.025-0.271c0.153-1.479,0.339-2.942,0.548-4.391
			c0.017-0.117,0.032-0.235,0.049-0.352c0.194-1.314,0.412-2.615,0.647-3.906c0.019-0.106,0.038-0.211,0.057-0.316
			c0.016-0.088,0.028-0.18,0.044-0.268c0.013-0.07,0.041-0.217,0.063-0.327c0.009-0.047,0.016-0.095,0.026-0.142
			C1111.62,581.249,984.167,554.175,984.27,554.259L984.27,554.259z"/>
	</g>
	<g>
		<g>
			<polygon fill="#CFAA7A" points="1002.815,719.119 1002.874,719.081 1002.65,719.081 			"/>
		</g>
		<g>
			<path fill="#E15A38" d="M1111.434,582.303c0.019-0.105,0.034-0.212,0.053-0.317c-0.019,0.105-0.038,0.211-0.057,0.316
				L1111.434,582.303z"/>
		</g>
		<g>
			<path fill="#E15A38" d="M1111.62,581.25c-0.009,0.047-0.017,0.095-0.026,0.142c0.013-0.069,0.024-0.126,0.024-0.126l0.221,0.061
				l38.094,7.911l0.066,0.012c0,0-0.104-8.539-0.208-9.108c-0.106-0.569-0.246-1.121-0.43-1.648c0,0,0-0.001,0-0.001
				c-0.101-0.287-0.243-0.546-0.366-0.818c-0.829-1.839-2.135-3.363-3.916-4.347l-0.177-0.114l-26.017-16.791
				c-0.001,0.003-0.002,0.007-0.004,0.009c-1.465,3.765-2.961,7.941-4.249,12.281C1114.633,568.711,1112.438,576.935,1111.62,581.25
				z"/>
		</g>
		<g>
			<path fill="#CFAA7A" d="M1149.219,623.299c0.38-1.08,0.596-2.257,0.641-3.498c0-0.002,0.001-0.004,0.001-0.006
				c-0.001,0.001-0.003,0.001-0.004,0.001c-0.023,0.621-0.087,1.227-0.194,1.813
				C1149.555,622.194,1149.408,622.759,1149.219,623.299z"/>
		</g>
		<g>
			<path fill="#DA5732" d="M1111.619,581.265c0,0-0.011,0.057-0.024,0.126c-0.021,0.11-0.05,0.257-0.063,0.327
				c-0.016,0.088-0.028,0.179-0.044,0.268c-0.019,0.104-0.034,0.212-0.053,0.317c-0.234,1.291-0.456,2.591-0.65,3.906
				c-0.017,0.117-0.032,0.235-0.049,0.352c-0.209,1.449-0.396,2.913-0.548,4.391c-0.009,0.09-0.016,0.181-0.025,0.271
				c-0.152,1.512-0.275,3.038-0.359,4.582c-0.003,0.051-0.004,0.103-0.007,0.154c-0.083,1.587-0.131,3.189-0.132,4.811
				c-0.007,6.948,0.546,13.682,1.572,20.112l38.751-8.211l0.012-23.42l-0.065-0.014l-38.094-7.911L1111.619,581.265z"/>
		</g>
		<g>
			<path fill="#E9B91F" d="M1114.069,632.647c-0.828-2.578-1.567-5.211-2.145-7.864c0.526,2.721,1.133,5.386,1.826,7.978
				C1113.857,632.723,1113.962,632.686,1114.069,632.647z"/>
		</g>
		<g>
			<path fill="#D45228" d="M1111.194,620.922c0.194,1.289,0.448,2.576,0.729,3.862c0.579,2.653,1.318,5.285,2.145,7.864
				c1.418,4.422,3.073,8.679,4.576,12.552l26.228-16.709l0.053-0.033c2.047-1.126,3.51-2.937,4.292-5.156c0-0.001,0-0.001,0-0.001
				c0.19-0.54,0.337-1.106,0.445-1.69c0.106-0.586,0.171-1.192,0.194-1.813c0.016-0.44,0.13-7.126,0.13-7.126l-38.751,8.211
				l-0.047,0.01C1111.19,620.903,1111.193,620.912,1111.194,620.922z"/>
		</g>
		<g>
			<polygon fill="#DCBF90" points="984.27,554.259 984.27,554.259 984.27,554.259 			"/>
		</g>
		<g>
			<path fill="#DA5732" d="M972.73,600.695c0.019-20.728,7.454-44.576,11.54-46.436l0,0l-2.775-0.01l-34.811-0.116l-896.225-1.114
				l-0.37-0.001L50,647.941l933.834,1.255c-0.002-0.001-0.004-0.003-0.005-0.004C979.915,646.525,972.711,620.822,972.73,600.695z"
				/>
		</g>
		<g>
			<polygon fill="#DA5732" points="984.269,554.258 984.27,554.259 984.271,554.258 			"/>
		</g>
		<g>
			<path fill="#E15A38" d="M70.081,480.881l-19.997,72.135h0.005l0.37,0.001l896.23,1.1l34.806,0.131l2.775,0.01h0.001l0,0
				c-0.001-0.001-0.001-0.001-0.001-0.001c-0.103-0.083-0.205-0.196-0.307-0.294c-3.138-3-5.902-12.756-1.05-32.249
				c4.973-19.978,15.972-36.486,20.83-39.312c0.182-0.106,0.358-0.199,0.522-0.266L70.081,480.881z"/>
		</g>
		<g>
			<path fill="#D45228" d="M982.139,679.682c-5.12-20.738-1.915-28.632,1.71-30.485h-0.015L50,647.941l19.18,69.885l933.47,1.255
				l0.224,0.001l0.142,0.001c-0.022-0.013-0.048-0.032-0.071-0.045C998.333,716.267,987.088,699.726,982.139,679.682z"/>
		</g>
		<g>
			<g>
				<polygon fill="#B83D1E" points="165.386,648.182 165.475,553.394 136.021,553.259 135.651,553.257 135.562,648.182 				"/>
			</g>
			<g>
				<polygon fill="#C34520" points="165.845,553.259 165.475,553.257 165.47,553.257 185.428,481.263 155.643,481.122 
					135.646,553.257 135.651,553.257 136.021,553.259 				"/>
			</g>
			<g>
				<polygon fill="#AC2E11" points="184.566,718.067 165.424,648.323 135.562,648.182 154.741,718.067 				"/>
			</g>
		</g>
		<g>
			<g>
				<polygon fill="#B83D1E" points="215.414,648.182 215.503,553.394 186.048,553.259 185.679,553.257 185.59,648.182 				"/>
			</g>
			<g>
				<polygon fill="#C34520" points="215.873,553.259 215.503,553.257 215.498,553.257 235.456,481.263 205.671,481.122 
					185.674,553.257 185.679,553.257 186.048,553.259 				"/>
			</g>
			<g>
				<polygon fill="#AC2E11" points="234.594,718.067 215.452,648.323 185.59,648.182 204.769,718.067 				"/>
			</g>
		</g>
	</g>
	<g>
		<path fill="#F9EAE4" d="M329.894,542.995v19.102h-43.929v24.975h33.644v18.364h-33.644v25.491h43.929v19.097h-68.905V542.995
			H329.894z"/>
		<path fill="#F9EAE4" d="M370.967,544.449c1.212,0.476,2.089,0.869,2.392,1.05c11.284,6.748,18.494,19.571,26.409,29.736
			c9.308,11.931,19.26,23.344,28.295,35.501c-0.263-6.534-1.511-67.741-0.765-67.741c4.884,0,10.245-0.635,15.081,0.001
			c7.241,0.952,6.257-0.601,6.821,7.038c0.808,10.957-0.009,22.291-0.014,33.282c-0.01,22.19-0.019,44.38-0.029,66.57
			c-0.002,3.663-13.977-0.425-15.694-1.242c-11.734-5.583-19.34-19.244-27.058-29.154c-5.508-7.073-10.793-14.428-16.663-21.202
			c-3.51-4.051-12.41-10.415-12.533-16.284c0.477,22.67,0.62,45.348,0.431,68.022c-7.301,0-14.602,0-21.904,0
			c0.016-35.627,0.032-71.254,0.049-106.881C355.787,539.28,366.087,542.534,370.967,544.449z"/>
		<path fill="#F9EAE4" d="M529.003,631.736c5.724,0.529,11.551-0.263,16.847-2.54c-0.153-5.606-0.305-11.213-0.458-16.819
			c-4.269,2.908-10.622,1.165-13.712-2.975c-3.09-4.14-3.28-9.923-1.583-14.802c12.642-0.011,25.285-0.023,37.927-0.034
			c0.039,12.939,0.077,25.878,0.116,38.817c0.005,1.798-0.017,3.701-0.95,5.238c-0.668,1.1-1.734,1.891-2.795,2.619
			c-16.77,11.514-39.495,14.042-58.157,5.947c-18.662-8.095-32.457-26.748-34.152-47.02s9.08-41.215,26.844-51.127
			c11.218-6.26,24.4-8.013,37.059-6.758c3.432,0.34,35.714,11.832,32.87,14.101c-4.951,3.95-5.781,13.197-12.087,13.794
			c-2.865,0.271-5.422-1.605-7.886-3.093c-13.602-8.217-32.857-5.289-43.485,6.526c-10.628,11.815-11.543,31.182-2.166,44.012
			C509.216,625.804,518.95,630.807,529.003,631.736z"/>
		<path fill="#F9EAE4" d="M619.759,630.193h39.668v19.832h-64.497V542.995h24.83V630.193z"/>
		<path fill="#F9EAE4" d="M710.113,650.025h-24.976V542.995h24.976V650.025z"/>
		<path fill="#F9EAE4" d="M801.314,564.718c-1.161,1.746-2.621,3.021-4.796,3.28c-2.163,0.258-4.251-0.759-6.196-1.741
			c-5.758-2.906-11.99-5.83-18.382-4.966c-6.39,0.865-12.404,7.29-10.337,13.401c2.524,7.453,12.841,9.505,19.375,11.439
			c8.466,2.506,16.447,5.484,22.221,12.664c8.177,10.169,7.711,25.81,0.209,36.487c-7.502,10.677-20.933,16.369-33.979,16.098
			c-13.046-0.271-25.593-5.991-35.664-14.289c4.854-4.536,6.066-13.946,12.696-14.373c2.467-0.159,4.752,1.178,6.876,2.443
			c5.909,3.518,12.351,6.936,19.22,6.601c10.073-0.492,17.534-11.536,9.86-19.943c-6.542-7.166-18.669-6.282-26.965-10.09
			c-19.439-8.925-22.966-34.8-7.992-49.584c7.898-7.797,19.347-11.151,30.271-10.388c3.288,0.23,32.32,9.099,29.874,11.578
			C804.662,556.317,803.535,561.379,801.314,564.718z"/>
		<path fill="#F9EAE4" d="M926.521,650.025h-24.976v-45.249h-43.488v45.249H833.08V542.995h24.976v44.737h43.488v-44.737h24.976
			V650.025z"/>
	</g>
</g>
</svg>
